# xmcd CD database file
#
# Track frame offsets:
#	150
#	14432
#	33625
#	55911
#	74296
#	99993
#	115247
#	143291
#	171541
#	197292
#	221917
#	240360
#	261513
#
# Disc length: 3787 seconds
#
# Revision: 0
# Processed by: cddbd v1.5.2PL0 Copyright (c) Steve Scherf et al.
# Submitted via: CDex 2.14
#
DISCID=b80ec90d
DTITLE=Louie Bellson and Clark Terry - Louie and Clark Expedition 2
DYEAR=2007
DGENRE=Jazz
TTITLE0=Chicago Suite 1 - State Street Swing
TTITLE1=Chicago Suite 2 - City of Seasons
TTITLE2=Chicago Suite 3 - the Blues Singer
TTITLE3=Chicago Suite 4 - Lake Shore Drive
TTITLE4=Davenport Blues
TTITLE5=Two Guys and a Gal
TTITLE6=Piacere
TTITLE7=Give Me the Good Time
TTITLE8=Ballade
TTITLE9=Terry's Mood
TTITLE10=Back to the Basics (Old)
TTITLE11=Now (The Young)
TTITLE12=Well Alright Then
EXTD=YEAR: 2007
EXTT0=
EXTT1=
EXTT2=
EXTT3=
EXTT4=
EXTT5=
EXTT6=
EXTT7=
EXTT8=
EXTT9=
EXTT10=
EXTT11=
EXTT12=
PLAYORDER=
